<svg width="1440" height="1118" viewBox="0 0 1440 1118" fill="none" xmlns="http://www.w3.org/2000/svg">
<path d="M-25.351 49.2729V240.206H1443V49.2729C1335.24 -53.8308 136.284 34.5569 -25.351 49.2729Z" fill="#4481EB"/>
<path d="M-26 67.1162V88.3108L1441.7 111.86V67.1162C1377.83 47.3345 277.797 -4.71 -26 67.1162Z" fill="#436EC0"/>
<path d="M711.096 76.199C1088.73 52.4418 1303.28 60.4321 1443 76.199V195.462L-25.3508 187.578V76.199C86.2517 84.6215 389.784 96.413 711.096 76.199Z" fill="#404971"/>
<path d="M-25.3276 1068.15L-25.237 877.222L1442.97 877.794L1442.88 1068.73C1335.08 1171.79 136.285 1082.93 -25.3276 1068.15Z" fill="#4481EB"/>
<path d="M-25.3058 1041.91L-25.2931 1020.79L1442.92 997.776L1442.9 1042.36C1378.99 1062.05 278.552 1113.58 -25.3058 1041.91Z" fill="#436EC0"/>
<path d="M711.069 1041.45C1088.65 1065.32 1303.18 1057.39 1442.9 1041.67L1442.97 922.407L-25.235 929.849L-25.3035 1041.23C86.2928 1032.84 389.802 1021.14 711.069 1041.45Z" fill="#404971"/>
<path d="M-25.3508 1017.81C111.332 1010.61 1010.5 1014.81 1443 1017.81V123.397C1349.9 111.879 399.835 79.947 -25.3508 123.397V1017.81Z" fill="#3F3D56"/>
</svg>
