<svg width="1440" height="104" viewBox="0 0 1440 104" fill="none" xmlns="http://www.w3.org/2000/svg">
<mask id="mask0" mask-type="alpha" maskUnits="userSpaceOnUse" x="0" y="0" width="1440" height="104">
<rect width="1440" height="104" fill="#C4C4C4"/>
</mask>
<g mask="url(#mask0)">
<path d="M-25.3276 54.1544L-25.237 -136.778L1442.97 -136.206L1442.88 54.7271C1335.08 157.789 136.285 68.9334 -25.3276 54.1544Z" fill="#4481EB"/>
<path d="M-25.3058 27.9111L-25.2931 6.7912L1442.92 -16.2243L1442.9 28.3623C1378.99 48.0546 278.552 99.5776 -25.3058 27.9111Z" fill="#436EC0"/>
<path d="M711.069 27.4498C1088.65 51.3205 1303.18 43.3948 1442.9 27.6699L1442.97 -91.5927L-25.235 -84.1508L-25.3035 27.2283C86.2928 18.8393 389.802 7.13914 711.069 27.4498Z" fill="#404971"/>
<path d="M0 4C134.044 -3.20205 1015.85 0.999145 1440 4V-890.855C1348.69 -902.378 416.976 -934.327 0 -890.855V4Z" fill="#3F3D56"/>
</g>
</svg>
