<svg width="1440" height="124" viewBox="0 0 1440 124" fill="none" xmlns="http://www.w3.org/2000/svg">
<mask id="mask0" mask-type="alpha" maskUnits="userSpaceOnUse" x="0" y="0" width="1440" height="124">
<rect width="1440" height="124" fill="#C4C4C4"/>
</mask>
<g mask="url(#mask0)">
<path d="M-25.351 49.2729V240.206H1443V49.2729C1335.24 -53.8308 136.284 34.5569 -25.351 49.2729Z" fill="#4481EB"/>
<path d="M-26 67.1162V88.3108L1441.7 111.86V67.1162C1377.83 47.3345 277.797 -4.71 -26 67.1162Z" fill="#436EC0"/>
<path d="M711.096 76.199C1088.73 52.4418 1303.28 60.4321 1443 76.199V195.462L-25.3508 187.578V76.199C86.2517 84.6215 389.784 96.413 711.096 76.199Z" fill="#404971"/>
<path d="M0 1018C134.044 1010.8 1015.85 1015 1440 1018V123.145C1348.69 111.622 416.976 79.6733 0 123.145V1018Z" fill="#3F3D56"/>
</g>
</svg>
