<svg width="514" height="682" viewBox="0 0 514 682" fill="none" xmlns="http://www.w3.org/2000/svg">
<mask id="mask0" mask-type="alpha" maskUnits="userSpaceOnUse" x="0" y="0" width="514" height="682">
<rect width="514" height="682" fill="#C4C4C4"/>
</mask>
<g mask="url(#mask0)">
<g clip-path="url(#clip0)">
<path d="M684 342.654C684.076 424.83 654.646 504.292 601.084 566.527C547.523 628.761 473.404 669.615 392.266 681.627H299.636C299.49 681.755 294.356 682 294.356 682C293.494 681.882 292.623 681.755 291.761 681.627C285.166 680.655 278.632 679.495 272.158 678.146C246.807 672.889 222.143 664.731 198.65 653.833C198.405 653.724 198.169 653.606 197.925 653.497C184.833 647.409 172.146 640.484 159.942 632.765C159.633 632.574 159.334 632.383 159.035 632.192C158.517 631.865 158.009 631.547 157.501 631.211C157.338 631.111 157.175 631.011 157.012 630.902C146.101 623.861 135.6 616.201 125.56 607.961C125.07 607.57 124.581 607.161 124.091 606.762C122.122 605.126 120.172 603.471 118.239 601.799C118.221 601.79 118.212 601.772 118.194 601.763C108.32 593.189 98.9405 584.061 90.0993 574.423C90.0721 574.387 90.0358 574.359 90.0086 574.323C51.1708 531.997 23.6115 480.543 9.879 424.719C9.77014 424.319 9.67942 423.928 9.57963 423.528C3.19855 397.046 -0.0172304 369.897 7.90173e-06 342.654C7.90173e-06 153.413 153.12 0 342 0C530.88 0 684 153.413 684 342.654Z" fill="#3F3D56"/>
<path d="M228.618 320.649C230.41 320.649 231.863 319.194 231.863 317.398C231.863 315.603 230.41 314.148 228.618 314.148C226.826 314.148 225.374 315.603 225.374 317.398C225.374 319.194 226.826 320.649 228.618 320.649Z" fill="#00B0FF"/>
<path d="M256.738 364.552L255.118 366.164L253.51 364.541L252.431 365.616L254.039 367.238L252.42 368.849L253.492 369.931L255.111 368.32L256.72 369.942L257.799 368.868L256.191 367.245L257.81 365.634L256.738 364.552Z" fill="#E6E6E6"/>
<path d="M269.716 270.283L268.096 271.895L266.488 270.272L265.408 271.347L267.017 272.969L265.397 274.581L266.47 275.662L268.089 274.051L269.697 275.673L270.777 274.599L269.169 272.976L270.788 271.365L269.716 270.283Z" fill="#E6E6E6"/>
<path d="M310.503 91.3949C306.999 93.7336 303.413 88.1672 306.984 85.9322C310.487 83.5936 314.073 89.1601 310.503 91.3949Z" fill="#E6E6E6"/>
<path d="M107.55 333.318L105.321 332.828L105.809 330.594L104.324 330.268L103.835 332.502L101.606 332.013L101.28 333.501L103.509 333.991L103.021 336.225L104.507 336.551L104.996 334.317L107.225 334.807L107.55 333.318Z" fill="#E6E6E6"/>
<path d="M472.27 42.0503L470.041 41.5604L470.529 39.3263L469.044 39L468.555 41.2341L466.326 40.7451L466 42.2339L468.229 42.7238L467.741 44.9569L469.227 45.2832L469.716 43.0491L471.945 43.539L472.27 42.0503Z" fill="#E6E6E6"/>
<path d="M201.807 100.439L199.578 99.9486L200.066 97.7155L198.581 97.3892L198.092 99.6223L195.862 99.1333L195.536 100.622L197.766 101.112L197.278 103.346L198.764 103.671L199.253 101.438L201.482 101.927L201.807 100.439Z" fill="#E6E6E6"/>
<path d="M413.067 174.624C414.859 174.624 416.311 173.169 416.311 171.373C416.311 169.578 414.859 168.123 413.067 168.123C411.275 168.123 409.822 169.578 409.822 171.373C409.822 173.169 411.275 174.624 413.067 174.624Z" fill="#00B0FF"/>
<path d="M388.771 220.615L386.542 220.125L387.03 217.891L385.544 217.564L385.055 219.799L382.826 219.31L382.5 220.798L384.729 221.288L384.241 223.521L385.727 223.848L386.216 221.614L388.445 222.103L388.771 220.615Z" fill="#E6E6E6"/>
<path d="M474.863 180.421L472.634 179.932L473.122 177.698L471.636 177.372L471.147 179.605L468.917 179.116L468.592 180.605L470.822 181.095L470.334 183.329L471.819 183.654L472.308 181.421L474.537 181.91L474.863 180.421Z" fill="#E6E6E6"/>
<path opacity="0.8" d="M324.631 198.7L354.541 163.618L384.45 128.535L401.335 108.731C402.269 107.635 400.827 105.926 399.893 107.021L369.983 142.104L340.074 177.186L323.189 196.99C322.255 198.086 323.697 199.795 324.631 198.7Z" fill="url(#paint0_linear)"/>
<path d="M119.355 400.656C114.219 398.278 107.914 397.499 102.689 399.708C97.4637 401.917 93.9014 407.58 95.5911 412.591C96.3571 414.863 98.1018 417.098 97.4221 419.392C96.8989 421.159 95.0737 422.325 93.2813 423.154C91.4889 423.983 89.5281 424.68 88.2318 426.078C86.9355 427.477 86.6652 429.884 88.2845 430.969C88.818 431.326 89.4849 431.496 90.0022 431.872C90.4431 432.229 90.7612 432.713 90.9123 433.258C91.0633 433.803 91.0396 434.381 90.8446 434.912C90.4135 435.981 89.7009 436.914 88.7818 437.613C86.9435 439.191 84.5141 440.997 85.0848 443.236C85.2966 443.835 85.6504 444.374 86.1161 444.807C86.5818 445.241 87.1457 445.556 87.7599 445.726C89.0356 446.092 90.3593 446.266 91.6868 446.242L145.931 447.942C147.722 448.076 149.522 447.976 151.287 447.645C152.145 447.489 152.961 447.159 153.685 446.675C154.408 446.191 155.024 445.564 155.493 444.833C156.532 442.919 155.85 440.562 154.567 438.776C153.284 436.989 151.469 435.579 149.969 433.939C148.468 432.298 147.241 430.25 147.505 428.129C147.717 426.432 148.842 424.965 149.65 423.422C150.457 421.88 150.926 419.953 149.88 418.534C148.407 416.534 144.868 416.715 143.192 414.852C141.928 413.446 142.172 411.422 142.046 409.609C141.744 405.248 138.71 401.129 134.39 399.216C132.194 398.278 129.805 397.873 127.421 398.035C125.036 398.196 122.724 398.92 120.676 400.146L119.355 400.656Z" fill="#2F2E41"/>
<path d="M85.8007 673L77 670.485L83.0108 637L96 640.712L85.8007 673Z" fill="#A0616A"/>
<path d="M85.7678 682L59 674.022L59.1017 673.686C59.5127 672.329 60.1892 671.066 61.0926 669.968C61.9959 668.87 63.1084 667.959 64.3665 667.288C65.6247 666.617 67.0038 666.197 68.4252 666.055C69.8466 665.912 71.2824 666.049 72.6506 666.456L72.6512 666.457L89 671.329L85.7678 682Z" fill="#2F2E41"/>
<path d="M163.999 674L155.868 673.999L152 640L164 640.001L163.999 674Z" fill="#A0616A"/>
<path d="M166.999 682L138 681.999V681.621C138 680.095 138.292 678.584 138.859 677.174C139.426 675.764 140.258 674.483 141.306 673.404C142.354 672.325 143.598 671.469 144.968 670.885C146.337 670.301 147.805 670 149.287 670H149.288L167 670.001L166.999 682Z" fill="#2F2E41"/>
<path d="M152.495 648C151.726 648 150.982 647.726 150.397 647.229C149.811 646.731 149.423 646.042 149.301 645.285L136.209 563.911C136.122 563.372 135.861 562.876 135.466 562.498C135.07 562.12 134.562 561.881 134.018 561.817C133.474 561.753 132.924 561.867 132.451 562.143C131.978 562.419 131.609 562.841 131.398 563.345L97.4786 644.707C97.1627 645.458 96.5742 646.063 95.8305 646.401C95.0869 646.738 94.2426 646.785 93.4663 646.53L81.2149 642.46C80.452 642.209 79.8105 641.684 79.4159 640.987C79.0213 640.289 78.9021 639.471 79.0815 638.69L106.879 516.134C107.015 515.544 107.314 515.003 107.743 514.574C108.171 514.144 108.712 513.843 109.304 513.704L146.583 505.081C147.041 504.978 147.517 504.973 147.977 505.068C148.437 505.163 148.871 505.356 149.25 505.633C173.797 523.404 171.723 581.466 167.149 644.511C167.091 645.3 166.745 646.041 166.176 646.592C165.606 647.144 164.853 647.467 164.06 647.502L152.637 647.997C152.59 647.999 152.542 648 152.495 648Z" fill="#2F2E41"/>
<path d="M121 448C130.389 448 138 439.941 138 430C138 420.059 130.389 412 121 412C111.611 412 104 420.059 104 430C104 439.941 111.611 448 121 448Z" fill="#A0616A"/>
<path d="M122.865 522C118.732 521.973 114.656 521.007 110.931 519.171L110.803 519.11L110.752 518.975L95.3086 477.942L95.0149 470.813C94.9165 468.429 95.3061 466.05 96.1585 463.83C97.0109 461.609 98.3073 459.596 99.9642 457.921C101.621 456.246 103.602 454.944 105.779 454.102C107.956 453.259 110.281 452.893 112.604 453.027L128.999 453.974C133.234 454.221 137.219 456.114 140.141 459.267C143.063 462.421 144.703 466.598 144.728 470.948C145.154 471.787 148.178 478.347 142.251 484.51C142.03 485.914 139.957 500.504 147.78 508.527L148 508.752L147.808 509.003C147.683 509.166 137.636 521.998 122.865 522Z" fill="#00B0FF"/>
<path d="M145.669 524.549C146.65 524.189 147.541 523.616 148.28 522.87C149.018 522.124 149.586 521.223 149.943 520.231C150.301 519.239 150.439 518.18 150.347 517.128C150.256 516.076 149.938 515.058 149.415 514.144L166 494.721L152.926 493L139.181 511.708C137.722 512.697 136.672 514.194 136.23 515.915C135.789 517.636 135.987 519.46 136.786 521.043C137.586 522.626 138.932 523.857 140.569 524.503C142.206 525.149 144.021 525.166 145.669 524.549Z" fill="#A0616A"/>
<path d="M156.041 509C155.418 509 154.808 508.819 154.288 508.479L146.086 503.152C145.396 502.705 144.907 502.012 144.722 501.217C144.537 500.422 144.67 499.587 145.092 498.887L151.03 489.006C151.352 488.472 151.555 487.876 151.627 487.258C151.7 486.64 151.639 486.014 151.45 485.421C151.26 484.828 150.947 484.281 150.529 483.817C150.111 483.352 149.599 482.981 149.025 482.726L131.966 475.151C129.868 474.208 128.155 472.587 127.109 470.554C126.063 468.521 125.745 466.196 126.207 463.96C126.525 462.453 127.191 461.038 128.152 459.827C129.113 458.616 130.343 457.64 131.747 456.977C133.15 456.313 134.69 455.979 136.245 456.001C137.8 456.023 139.329 456.399 140.713 457.102L166.594 470.236C168.34 471.122 169.872 472.371 171.085 473.898C172.298 475.425 173.164 477.194 173.622 479.083C174.081 480.972 174.122 482.937 173.743 484.843C173.364 486.75 172.573 488.552 171.425 490.128L158.631 507.686C158.336 508.093 157.947 508.424 157.496 508.653C157.046 508.881 156.547 509 156.041 509Z" fill="#00B0FF"/>
<path d="M103.492 427.612C109.18 427.154 113.902 421.461 113.311 415.775C113.244 418.119 114.04 420.405 115.546 422.2C117.053 423.994 119.165 425.171 121.481 425.507C124.09 425.795 126.951 425.004 129.222 426.322C131.737 427.783 132.542 431.33 135.162 432.592C137.694 433.81 140.91 432.148 142.161 429.628C143.412 427.108 143.105 424.081 142.276 421.392C141.094 417.558 138.941 414.095 136.027 411.34C133.113 408.586 129.538 406.634 125.648 405.675C121.758 404.715 117.687 404.78 113.83 405.864C109.973 406.948 106.461 409.013 103.637 411.859C101.245 414.269 99.3462 417.341 99.0382 420.726C98.7302 424.11 100.297 427.783 103.331 429.303L103.492 427.612Z" fill="#2F2E41"/>
<path d="M62.4515 378.908C63.3552 379.418 64.1412 380.129 64.754 380.991C65.3668 381.853 65.7915 382.846 65.9982 383.899C66.2049 384.951 66.1886 386.039 65.9504 387.084C65.7122 388.129 65.258 389.107 64.6197 389.949L78 412L65.033 411.767L54.3148 390.863C53.035 389.647 52.2258 387.981 52.0406 386.183C51.8555 384.384 52.3072 382.576 53.3101 381.103C54.3131 379.629 55.7976 378.592 57.4824 378.187C59.1672 377.783 60.9353 378.039 62.4515 378.908V378.908Z" fill="#A0616A"/>
<path d="M73.6484 394.96L91.1997 436.506L109.601 467.765C110.378 469.084 110.845 470.563 110.968 472.09C111.09 473.617 110.865 475.152 110.308 476.579C109.752 478.006 108.879 479.288 107.756 480.327C106.633 481.367 105.289 482.137 103.825 482.58C101.503 483.27 99.0116 483.106 96.8003 482.117C94.589 481.127 92.8038 479.379 91.7671 477.186L56.3017 401.27C56.1091 400.857 56.0063 400.408 56.0003 399.953C55.9943 399.498 56.0851 399.046 56.2667 398.629C56.4484 398.211 56.7168 397.838 57.0539 397.532C57.391 397.227 57.7891 396.997 58.2219 396.857L69.7214 393.157C69.9393 393.087 70.164 393.039 70.3918 393.016C71.0709 392.947 71.754 393.099 72.3404 393.449C72.9268 393.799 73.3854 394.329 73.6484 394.96Z" fill="#00B0FF"/>
<rect x="389" y="433" width="57" height="246" fill="url(#paint1_linear)"/>
<path d="M306 304H364V679H306V304Z" fill="url(#paint2_linear)"/>
<path d="M169 173C169 160.39 165.027 148.101 157.646 137.877C150.264 127.654 139.849 120.016 127.88 116.048C115.911 112.08 102.996 111.984 90.9691 115.773C78.9422 119.563 68.4149 127.045 60.8822 137.158L109 173H169Z" fill="#00B0FF"/>
<path d="M88.084 229.236C100.179 233.735 113.401 234.214 125.79 230.603C138.178 226.992 149.072 219.484 156.856 209.191L109 173L88.084 229.236Z" fill="#4377D3"/>
<path d="M60.8525 137.198C55.2651 144.712 51.5139 153.429 49.899 162.652C48.2841 171.876 48.8504 181.349 51.5526 190.315C54.2548 199.28 59.0178 207.488 65.4605 214.283C71.9033 221.078 79.847 226.271 88.6561 229.446L109 173L60.8525 137.198Z" fill="#2F2E41"/>
<path d="M149.545 217.228C158.025 209.454 164.091 199.407 167.021 188.283L109 173L149.545 217.228Z" fill="#436EC0"/>
<path d="M166.733 189.338C168.253 183.966 169.016 178.407 169 172.824L109 173L166.733 189.338Z" fill="white"/>
<path d="M382.573 24L365.87 33.1389L398.233 54.5733L413.715 44.3602L382.573 24Z" fill="#2F2E41"/>
<path d="M422.741 53.0352L458.333 75.9807L441.804 85.8043L406.226 62.0528L422.741 53.0352Z" fill="#2F2E41"/>
<path d="M416.19 41.6467C418.087 42.5703 419.751 43.9097 421.058 45.5653C422.366 47.2209 423.283 49.15 423.742 51.2091C423.923 51.9584 423.892 52.7435 423.652 53.4761C423.411 54.2087 422.972 54.8598 422.382 55.3562L412.092 64.046C411.352 64.6697 410.44 65.0535 409.477 65.1464C408.513 65.2393 407.545 65.037 406.699 64.5663C402.516 62.2464 395.797 57.3765 398.797 51.2091C399.133 50.524 399.646 49.9415 400.283 49.5221L411.75 41.939C412.401 41.5074 413.153 41.2533 413.931 41.2021C414.71 41.1508 415.489 41.3041 416.19 41.6467Z" fill="#D0CDE1"/>
<path d="M404.35 75.7524C409.442 71.9612 409.044 62.8098 403.462 55.3121C397.879 47.8145 389.226 44.8097 384.134 48.6009C379.043 52.392 379.44 61.5434 385.023 69.0411C390.605 76.5388 399.258 79.5435 404.35 75.7524Z" fill="#2F2E41"/>
<path opacity="0.2" d="M399.482 75.5597C397.395 77.1139 392.434 74.05 387.973 68.6148C387.578 68.1343 387.188 67.6354 386.802 67.118C386.519 66.738 386.246 66.358 385.984 65.978C381.849 60.0023 380.214 54.1407 382.35 52.5505C384.502 50.9475 389.708 54.2538 394.273 60.0059C394.527 60.3282 394.78 60.6569 395.03 60.9921C395.894 62.1506 396.692 63.356 397.423 64.603C400.365 69.6527 401.321 74.1894 399.482 75.5597Z" fill="black"/>
<path d="M397.423 64.6029L387.973 68.6148L381.212 71.4849L380.212 70.1354L385.984 65.978L394.273 60.0059C394.527 60.3281 394.78 60.6569 395.03 60.9921C395.894 62.1505 396.692 63.356 397.423 64.6029Z" fill="#D0CDE1"/>
<path d="M379.38 73.7871C380.514 73.7871 381.434 72.8675 381.434 71.7332C381.434 70.5988 380.514 69.6792 379.38 69.6792C378.245 69.6792 377.326 70.5988 377.326 71.7332C377.326 72.8675 378.245 73.7871 379.38 73.7871Z" fill="#D0CDE1"/>
<path d="M378.777 93.4299C378.646 93.3104 378.486 93.2285 378.312 93.1929C367.249 90.9071 360.288 84.5373 357.031 73.7201C356.956 73.4704 356.784 73.2608 356.555 73.1375C356.325 73.0141 356.055 72.9871 355.806 73.0623C355.556 73.1374 355.346 73.3087 355.222 73.5384C355.099 73.7681 355.072 74.0375 355.147 74.2874C358.582 85.6998 366.242 92.7089 377.914 95.1206C378.125 95.1641 378.345 95.1372 378.539 95.0439C378.733 94.9506 378.892 94.796 378.99 94.604C379.088 94.412 379.12 94.1931 379.081 93.981C379.043 93.7689 378.936 93.5753 378.777 93.4299H378.777Z" fill="#2F2E41"/>
<path d="M381.5 84.8664C381.369 84.7468 381.208 84.6649 381.035 84.6294C372.74 82.9153 367.52 78.1394 365.079 70.0287C365.003 69.7791 364.832 69.5697 364.602 69.4465C364.372 69.3232 364.103 69.2962 363.853 69.3714C363.603 69.4465 363.394 69.6177 363.27 69.8473C363.146 70.0769 363.119 70.3462 363.194 70.596C365.826 79.3395 371.694 84.7093 380.637 86.5571C380.848 86.6006 381.067 86.5737 381.262 86.4804C381.456 86.3871 381.614 86.2325 381.712 86.0405C381.81 85.8485 381.843 85.6297 381.804 85.4175C381.766 85.2054 381.659 85.0118 381.5 84.8664V84.8664Z" fill="#2F2E41"/>
<path d="M374.754 102.2C374.624 102.081 374.463 101.999 374.289 101.963C363.249 99.6821 351.176 88.6348 347.926 77.8398C347.851 77.5902 347.679 77.3808 347.449 77.2575C347.22 77.1342 346.95 77.1072 346.701 77.1824C346.451 77.2575 346.241 77.4287 346.118 77.6583C345.994 77.888 345.967 78.1572 346.041 78.407C349.474 89.8109 362.228 101.481 373.891 103.891C374.102 103.935 374.322 103.908 374.516 103.814C374.711 103.721 374.869 103.566 374.967 103.374C375.065 103.182 375.097 102.964 375.059 102.751C375.02 102.539 374.913 102.346 374.754 102.2Z" fill="#2F2E41"/>
</g>
</g>
<defs>
<linearGradient id="paint0_linear" x1="45914.1" y1="22556" x2="52750.4" y2="22556" gradientUnits="userSpaceOnUse">
<stop stop-color="white"/>
<stop offset="1" stop-color="white" stop-opacity="0.3"/>
</linearGradient>
<linearGradient id="paint1_linear" x1="417.5" y1="433" x2="417.5" y2="679" gradientUnits="userSpaceOnUse">
<stop stop-color="#4377D4"/>
<stop offset="1" stop-color="#3F3F58"/>
</linearGradient>
<linearGradient id="paint2_linear" x1="335" y1="304" x2="335" y2="685.356" gradientUnits="userSpaceOnUse">
<stop stop-color="#04BEFE"/>
<stop offset="1" stop-color="#4481EB"/>
</linearGradient>
<clipPath id="clip0">
<rect width="684" height="682" fill="white"/>
</clipPath>
</defs>
</svg>
