<svg width="514" height="682" viewBox="0 0 514 682" fill="none" xmlns="http://www.w3.org/2000/svg">
<mask id="mask0" mask-type="alpha" maskUnits="userSpaceOnUse" x="0" y="0" width="514" height="682">
<rect width="514" height="682" fill="#C4C4C4"/>
</mask>
<g mask="url(#mask0)">
<g clip-path="url(#clip0)">
<path d="M684 342.654C684.076 424.83 654.646 504.292 601.084 566.527C547.523 628.761 473.404 669.615 392.266 681.627H299.636C299.49 681.755 294.356 682 294.356 682C293.494 681.882 292.623 681.755 291.761 681.627C285.166 680.655 278.632 679.495 272.158 678.146C246.807 672.889 222.143 664.731 198.65 653.833C198.405 653.724 198.17 653.606 197.925 653.497C184.833 647.409 172.146 640.484 159.942 632.765C159.633 632.574 159.334 632.383 159.035 632.192C158.518 631.865 158.01 631.547 157.501 631.211C157.338 631.111 157.175 631.011 157.012 630.902C146.101 623.861 135.6 616.201 125.56 607.961C125.07 607.57 124.581 607.161 124.091 606.762C122.122 605.126 120.172 603.471 118.24 601.799C118.221 601.79 118.212 601.772 118.194 601.763C108.321 593.189 98.9405 584.061 90.0994 574.423C90.0722 574.387 90.0359 574.359 90.0087 574.323C51.1709 531.997 23.6116 480.543 9.87906 424.719C9.7702 424.319 9.67948 423.928 9.5797 423.528C3.19861 397.046 -0.0171694 369.897 6.89369e-05 342.654C6.89369e-05 153.413 153.12 0 342 0C530.88 0 684 153.413 684 342.654Z" fill="#3F3D56"/>
<path opacity="0.8" d="M450.744 190.031L480.654 154.949L510.564 119.866L527.448 100.062C528.382 98.9663 526.941 97.2568 526.006 98.3525L496.097 133.435L466.187 168.517L449.303 188.321C448.368 189.417 449.81 191.126 450.744 190.031Z" fill="url(#paint0_linear)"/>
<path d="M110.245 232.378C143.382 232.378 170.245 205.516 170.245 172.378C170.245 139.241 143.382 112.378 110.245 112.378C77.1078 112.378 50.2449 139.241 50.2449 172.378C50.2449 205.516 77.1078 232.378 110.245 232.378Z" fill="#E6E6E6"/>
<path d="M104.386 138.021C108.192 138.021 111.277 134.93 111.277 131.117C111.277 127.304 108.192 124.213 104.386 124.213C100.58 124.213 97.4954 127.304 97.4954 131.117C97.4954 134.93 100.58 138.021 104.386 138.021Z" fill="#CBCBCB"/>
<path d="M116.199 207.06C120.004 207.06 123.089 203.969 123.089 200.156C123.089 196.343 120.004 193.252 116.199 193.252C112.393 193.252 109.308 196.343 109.308 200.156C109.308 203.969 112.393 207.06 116.199 207.06Z" fill="#CBCBCB"/>
<path d="M142.777 166.623C145.495 166.623 147.699 164.415 147.699 161.692C147.699 158.968 145.495 156.76 142.777 156.76C140.059 156.76 137.855 158.968 137.855 161.692C137.855 164.415 140.059 166.623 142.777 166.623Z" fill="#CBCBCB"/>
<path d="M86.6671 193.252C95.3657 193.252 102.417 186.187 102.417 177.472C102.417 168.756 95.3657 161.691 86.6671 161.691C77.9686 161.691 70.917 168.756 70.917 177.472C70.917 186.187 77.9686 193.252 86.6671 193.252Z" fill="#CBCBCB"/>
<path d="M228.618 320.649C230.41 320.649 231.863 319.194 231.863 317.398C231.863 315.603 230.41 314.148 228.618 314.148C226.826 314.148 225.374 315.603 225.374 317.398C225.374 319.194 226.826 320.649 228.618 320.649Z" fill="#00B0FF"/>
<path d="M256.738 364.552L255.118 366.164L253.51 364.541L252.431 365.616L254.039 367.238L252.42 368.849L253.492 369.931L255.111 368.32L256.72 369.942L257.799 368.868L256.191 367.245L257.81 365.634L256.738 364.552Z" fill="#E6E6E6"/>
<path d="M269.716 270.283L268.096 271.895L266.488 270.272L265.408 271.347L267.017 272.969L265.397 274.581L266.47 275.662L268.089 274.051L269.697 275.673L270.777 274.599L269.169 272.976L270.788 271.365L269.716 270.283Z" fill="#E6E6E6"/>
<path d="M310.502 91.3949C306.999 93.7336 303.413 88.1672 306.984 85.9322C310.487 83.5936 314.073 89.1601 310.502 91.3949Z" fill="#E6E6E6"/>
<path d="M107.55 333.318L105.321 332.828L105.809 330.594L104.324 330.268L103.835 332.502L101.606 332.013L101.28 333.501L103.509 333.991L103.021 336.225L104.507 336.551L104.996 334.317L107.225 334.807L107.55 333.318Z" fill="#E6E6E6"/>
<path d="M448.643 65.1933L446.414 64.7034L446.903 62.4694L445.417 62.1431L444.928 64.3771L442.699 63.8881L442.373 65.3769L444.602 65.8668L444.114 68.1L445.6 68.4263L446.089 66.1922L448.318 66.6821L448.643 65.1933Z" fill="#E6E6E6"/>
<path d="M201.807 100.439L199.578 99.9486L200.067 97.7155L198.581 97.3892L198.092 99.6223L195.862 99.1333L195.536 100.622L197.766 101.112L197.278 103.346L198.764 103.671L199.253 101.438L201.482 101.927L201.807 100.439Z" fill="#E6E6E6"/>
<path d="M413.067 174.624C414.859 174.624 416.311 173.169 416.311 171.373C416.311 169.578 414.859 168.123 413.067 168.123C411.275 168.123 409.822 169.578 409.822 171.373C409.822 173.169 411.275 174.624 413.067 174.624Z" fill="#00B0FF"/>
<path d="M388.771 220.615L386.542 220.125L387.03 217.891L385.544 217.564L385.055 219.799L382.826 219.31L382.5 220.798L384.729 221.288L384.241 223.521L385.727 223.848L386.216 221.614L388.445 222.103L388.771 220.615Z" fill="#E6E6E6"/>
<path d="M474.863 180.421L472.634 179.932L473.122 177.698L471.636 177.372L471.147 179.605L468.917 179.116L468.592 180.605L470.822 181.095L470.334 183.329L471.819 183.654L472.308 181.421L474.537 181.91L474.863 180.421Z" fill="#E6E6E6"/>
<path opacity="0.8" d="M324.631 198.7L354.541 163.618L384.45 128.535L401.335 108.731C402.269 107.635 400.827 105.926 399.893 107.021L369.983 142.104L340.074 177.186L323.189 196.99C322.255 198.086 323.697 199.795 324.631 198.7Z" fill="url(#paint1_linear)"/>
<path d="M119.355 400.656C114.219 398.278 107.914 397.499 102.689 399.708C97.4637 401.917 93.9014 407.58 95.5911 412.591C96.3571 414.863 98.1018 417.098 97.4221 419.392C96.8989 421.159 95.0737 422.325 93.2813 423.154C91.4889 423.983 89.5281 424.68 88.2318 426.078C86.9355 427.477 86.6652 429.884 88.2845 430.969C88.818 431.326 89.4849 431.496 90.0022 431.872C90.4431 432.229 90.7612 432.713 90.9123 433.258C91.0633 433.803 91.0396 434.381 90.8446 434.912C90.4135 435.981 89.7009 436.914 88.7818 437.613C86.9435 439.191 84.5141 440.997 85.0848 443.236C85.2966 443.835 85.6504 444.374 86.1161 444.807C86.5818 445.241 87.1457 445.556 87.7599 445.726C89.0356 446.092 90.3593 446.266 91.6868 446.242L145.931 447.942C147.722 448.076 149.522 447.976 151.287 447.645C152.145 447.489 152.961 447.159 153.685 446.675C154.408 446.191 155.024 445.564 155.493 444.833C156.532 442.919 155.85 440.562 154.567 438.776C153.284 436.989 151.469 435.579 149.969 433.939C148.468 432.298 147.241 430.25 147.505 428.129C147.717 426.432 148.842 424.965 149.65 423.422C150.457 421.88 150.926 419.953 149.88 418.534C148.407 416.534 144.868 416.715 143.192 414.852C141.928 413.446 142.172 411.422 142.046 409.609C141.744 405.248 138.71 401.129 134.39 399.216C132.194 398.278 129.805 397.873 127.421 398.035C125.036 398.196 122.724 398.92 120.676 400.146L119.355 400.656Z" fill="#2F2E41"/>
<path d="M85.8007 673L77 670.485L83.0108 637L96 640.712L85.8007 673Z" fill="#A0616A"/>
<path d="M85.7678 682L59 674.022L59.1017 673.686C59.5127 672.329 60.1892 671.066 61.0926 669.968C61.9959 668.87 63.1084 667.959 64.3665 667.288C65.6247 666.617 67.0038 666.197 68.4252 666.055C69.8466 665.912 71.2824 666.049 72.6506 666.456L72.6512 666.457L89 671.329L85.7678 682Z" fill="#2F2E41"/>
<path d="M163.999 674L155.868 673.999L152 640L164 640.001L163.999 674Z" fill="#A0616A"/>
<path d="M166.999 682L138 681.999V681.621C138 680.095 138.292 678.584 138.859 677.174C139.426 675.764 140.258 674.483 141.306 673.404C142.354 672.325 143.598 671.469 144.968 670.885C146.337 670.301 147.805 670 149.287 670H149.288L167 670.001L166.999 682Z" fill="#2F2E41"/>
<path d="M152.495 648C151.726 648 150.982 647.726 150.397 647.229C149.811 646.731 149.423 646.042 149.301 645.285L136.209 563.911C136.122 563.372 135.861 562.876 135.466 562.498C135.07 562.12 134.562 561.881 134.018 561.817C133.474 561.753 132.924 561.867 132.451 562.143C131.978 562.419 131.609 562.841 131.398 563.345L97.4786 644.707C97.1627 645.458 96.5742 646.063 95.8305 646.401C95.0869 646.738 94.2426 646.785 93.4663 646.53L81.2149 642.46C80.452 642.209 79.8105 641.684 79.4159 640.987C79.0213 640.289 78.9021 639.471 79.0815 638.69L106.879 516.134C107.015 515.544 107.314 515.003 107.743 514.574C108.171 514.144 108.712 513.843 109.304 513.704L146.583 505.081C147.041 504.978 147.517 504.973 147.977 505.068C148.437 505.163 148.871 505.356 149.25 505.633C173.797 523.404 171.723 581.466 167.149 644.511C167.091 645.3 166.745 646.041 166.176 646.592C165.606 647.144 164.853 647.467 164.06 647.502L152.637 647.997C152.59 647.999 152.542 648 152.495 648Z" fill="#2F2E41"/>
<path d="M121 448C130.389 448 138 439.941 138 430C138 420.059 130.389 412 121 412C111.611 412 104 420.059 104 430C104 439.941 111.611 448 121 448Z" fill="#A0616A"/>
<path d="M122.865 522C118.732 521.973 114.656 521.007 110.931 519.171L110.803 519.11L110.752 518.975L95.3086 477.942L95.0149 470.813C94.9165 468.429 95.3061 466.05 96.1585 463.83C97.0109 461.609 98.3073 459.596 99.9642 457.921C101.621 456.246 103.602 454.944 105.779 454.102C107.956 453.259 110.281 452.893 112.604 453.027L128.999 453.974C133.234 454.221 137.219 456.114 140.141 459.267C143.063 462.421 144.703 466.598 144.728 470.948C145.154 471.787 148.178 478.347 142.251 484.51C142.03 485.914 139.957 500.504 147.78 508.527L148 508.752L147.808 509.003C147.683 509.166 137.636 521.998 122.865 522Z" fill="#00B0FF"/>
<path d="M145.669 524.549C146.65 524.189 147.541 523.616 148.28 522.87C149.018 522.124 149.586 521.223 149.943 520.231C150.301 519.239 150.439 518.18 150.347 517.128C150.256 516.076 149.938 515.058 149.415 514.144L166 494.721L152.926 493L139.181 511.708C137.722 512.697 136.672 514.194 136.23 515.915C135.789 517.636 135.987 519.46 136.786 521.043C137.586 522.626 138.932 523.857 140.569 524.503C142.206 525.149 144.021 525.166 145.669 524.549Z" fill="#A0616A"/>
<path d="M156.041 509C155.418 509 154.808 508.819 154.288 508.479L146.086 503.152C145.396 502.705 144.907 502.012 144.722 501.217C144.537 500.422 144.67 499.587 145.092 498.887L151.03 489.006C151.352 488.472 151.555 487.876 151.627 487.258C151.7 486.64 151.639 486.014 151.45 485.421C151.26 484.828 150.947 484.281 150.529 483.817C150.111 483.352 149.599 482.981 149.025 482.726L131.966 475.151C129.868 474.208 128.155 472.587 127.109 470.554C126.063 468.521 125.745 466.196 126.207 463.96C126.525 462.453 127.191 461.038 128.152 459.827C129.113 458.616 130.343 457.64 131.747 456.977C133.15 456.313 134.69 455.979 136.245 456.001C137.8 456.023 139.329 456.399 140.713 457.102L166.594 470.236C168.34 471.122 169.872 472.371 171.085 473.898C172.298 475.425 173.164 477.194 173.622 479.083C174.081 480.972 174.122 482.937 173.743 484.843C173.364 486.75 172.573 488.552 171.425 490.128L158.631 507.686C158.336 508.093 157.947 508.424 157.496 508.653C157.046 508.881 156.547 509 156.041 509Z" fill="#00B0FF"/>
<path d="M103.492 427.612C109.18 427.154 113.902 421.461 113.311 415.775C113.244 418.119 114.04 420.405 115.546 422.2C117.053 423.994 119.165 425.171 121.481 425.507C124.09 425.795 126.951 425.004 129.222 426.322C131.737 427.783 132.542 431.33 135.162 432.592C137.694 433.81 140.91 432.148 142.161 429.628C143.412 427.108 143.105 424.081 142.276 421.392C141.094 417.558 138.941 414.095 136.027 411.34C133.113 408.586 129.538 406.634 125.648 405.675C121.758 404.715 117.687 404.78 113.83 405.864C109.973 406.948 106.461 409.013 103.637 411.859C101.245 414.269 99.3462 417.341 99.0382 420.726C98.7302 424.11 100.297 427.783 103.331 429.303L103.492 427.612Z" fill="#2F2E41"/>
<path d="M62.4515 378.908C63.3552 379.418 64.1412 380.129 64.754 380.991C65.3668 381.853 65.7915 382.846 65.9982 383.899C66.2049 384.951 66.1886 386.039 65.9504 387.084C65.7122 388.129 65.258 389.107 64.6197 389.949L78 412L65.033 411.767L54.3148 390.863C53.035 389.647 52.2258 387.981 52.0406 386.183C51.8555 384.384 52.3072 382.576 53.3101 381.103C54.3131 379.629 55.7976 378.592 57.4824 378.187C59.1672 377.783 60.9353 378.039 62.4515 378.908V378.908Z" fill="#A0616A"/>
<path d="M73.6484 394.96L91.1997 436.506L109.601 467.765C110.378 469.084 110.845 470.563 110.968 472.09C111.09 473.617 110.865 475.152 110.308 476.579C109.752 478.006 108.879 479.288 107.756 480.327C106.633 481.367 105.289 482.137 103.825 482.58C101.503 483.27 99.0116 483.106 96.8003 482.117C94.589 481.127 92.8038 479.379 91.7671 477.186L56.3017 401.27C56.1091 400.857 56.0063 400.408 56.0003 399.953C55.9943 399.498 56.0851 399.046 56.2667 398.629C56.4484 398.211 56.7168 397.838 57.0539 397.532C57.391 397.227 57.7891 396.997 58.2219 396.857L69.7214 393.157C69.9393 393.087 70.164 393.039 70.3918 393.016C71.0709 392.947 71.754 393.099 72.3404 393.449C72.9268 393.799 73.3854 394.329 73.6484 394.96Z" fill="#00B0FF"/>
<path d="M288.293 42.5978L298.189 58.457L260.177 62.0387L251.844 45.8118L288.293 42.5978Z" fill="#2F2E41"/>
<path d="M239.944 49.1749L198.443 52.5643L207.859 68.9417L249.737 64.8395L239.944 49.1749Z" fill="#2F2E41"/>
<path d="M251.031 42.2702C248.964 42.1886 246.895 42.5808 244.98 43.4177C243.064 44.2547 241.351 45.5147 239.967 47.1041C239.451 47.6757 239.1 48.3785 238.953 49.1335C238.806 49.8886 238.869 50.6659 239.135 51.3782L243.758 63.8301C244.091 64.7245 244.687 65.4895 245.466 66.0236C246.246 66.5577 247.172 66.8356 248.122 66.8203C252.819 66.7525 260.912 65.6405 261.313 58.8248C261.356 58.0668 261.197 57.3151 260.854 56.6482L254.69 44.6128C254.342 43.9288 253.82 43.3528 253.178 42.9419C252.537 42.531 251.796 42.2994 251.031 42.2702Z" fill="#D0CDE1"/>
<path d="M244.749 77.7291C242.216 72.0134 246.961 64.1786 255.347 60.2295C263.733 56.2804 272.584 57.7125 275.117 63.4282C277.649 69.1439 272.904 76.9787 264.519 80.9278C256.133 84.8769 247.282 83.4448 244.749 77.7291Z" fill="#2F2E41"/>
<path opacity="0.2" d="M249.008 79.8481C250.045 82.1907 255.766 81.8365 262.199 79.168C262.768 78.9324 263.342 78.6786 263.922 78.4065C264.347 78.2062 264.763 78.0011 265.17 77.7913C271.585 74.4965 275.805 70.1266 274.743 67.729C273.673 65.3128 267.626 65.7646 260.952 68.6619C260.578 68.8246 260.204 68.9942 259.829 69.1706C258.532 69.7801 257.268 70.4614 256.043 71.2113C251.095 74.2554 248.094 77.7827 249.008 79.8481Z" fill="black"/>
<path d="M256.043 71.2109L262.199 79.1676L266.603 84.8602L268.108 84.1472L265.17 77.7909L260.952 68.6615C260.578 68.8243 260.204 68.9938 259.829 69.1702C258.532 69.7798 257.268 70.461 256.043 71.2109Z" fill="#D0CDE1"/>
<path d="M267.063 87.7397C266.092 87.2067 265.748 85.9685 266.294 84.9742C266.84 83.9799 268.07 83.6059 269.04 84.1389C270.011 84.6719 270.355 85.9101 269.81 86.9044C269.264 87.8988 268.034 88.2727 267.063 87.7397Z" fill="#D0CDE1"/>
<path d="M258.125 105.241C258.294 105.197 258.471 105.201 258.637 105.251C269.204 108.446 278.227 106.133 286.22 98.1817C286.405 97.9983 286.653 97.8952 286.909 97.8951C287.165 97.8949 287.408 97.9978 287.586 98.1811C287.763 98.3644 287.86 98.613 287.856 98.8724C287.851 99.1319 287.744 99.3808 287.56 99.5646C279.127 107.954 269.199 110.499 258.05 107.128C257.848 107.067 257.673 106.94 257.552 106.767C257.43 106.594 257.369 106.384 257.378 106.17C257.386 105.956 257.464 105.749 257.599 105.581C257.734 105.413 257.919 105.293 258.125 105.241L258.125 105.241Z" fill="#2F2E41"/>
<path d="M259.917 96.455C260.086 96.4115 260.263 96.4152 260.428 96.4656C268.352 98.8608 275.117 97.1269 281.11 91.1648C281.295 90.9815 281.543 90.8785 281.799 90.8785C282.055 90.8784 282.298 90.9813 282.476 91.1645C282.653 91.3477 282.75 91.5963 282.745 91.8556C282.741 92.1149 282.635 92.3639 282.45 92.5477C275.989 98.975 268.383 100.925 259.841 98.3424C259.64 98.2814 259.465 98.1546 259.343 97.9815C259.222 97.8084 259.161 97.5986 259.169 97.3842C259.178 97.1699 259.256 96.9628 259.391 96.795C259.526 96.6271 259.711 96.5077 259.917 96.455L259.917 96.455Z" fill="#2F2E41"/>
<path d="M257.346 114.819C257.516 114.775 257.693 114.779 257.858 114.829C268.404 118.017 284.053 114.006 292.029 106.071C292.214 105.888 292.462 105.785 292.718 105.785C292.974 105.785 293.217 105.888 293.395 106.071C293.572 106.254 293.669 106.503 293.664 106.762C293.66 107.021 293.553 107.27 293.369 107.454C284.943 115.837 268.412 120.074 257.271 116.706C257.069 116.645 256.895 116.518 256.773 116.345C256.652 116.172 256.591 115.962 256.599 115.748C256.608 115.533 256.686 115.326 256.821 115.159C256.955 114.991 257.14 114.871 257.346 114.819Z" fill="#2F2E41"/>
<path d="M309.577 586.796C308.187 587.043 306.825 587.432 305.514 587.956C276.29 599.626 276.778 676.017 276.778 676.017H268.174C268.174 676.017 265.465 643.234 253.66 596.462C243.024 554.381 286.643 516.667 295.502 509.516C296.499 508.719 297.051 508.297 297.051 508.297C340.985 524.442 309.577 586.796 309.577 586.796Z" fill="#2F2E41"/>
<path opacity="0.2" d="M300.248 509.624C299.235 509.158 298.189 508.714 297.078 508.308C297.078 508.308 296.536 508.73 295.529 509.527C286.671 516.678 243.051 554.392 253.687 596.472C265.492 643.245 268.174 676.017 268.174 676.017H273.012C273.012 676.017 270.33 643.234 258.498 596.462C247.906 554.576 291.102 517.003 300.248 509.624Z" fill="white"/>
<path d="M454.527 596.473C442.694 643.245 440.028 676.017 440.028 676.017H431.409C431.409 676.017 431.95 596.18 400.673 587.268C399.996 587.064 399.306 586.903 398.609 586.785C398.609 586.785 367.185 524.431 411.135 508.297C411.135 508.297 411.579 508.627 412.381 509.272C420.524 515.79 465.281 553.904 454.527 596.473Z" fill="#2F2E41"/>
<path opacity="0.1" d="M309.577 586.796C308.187 587.043 306.825 587.432 305.514 587.956C300.23 562.098 296.884 535.882 295.502 509.527C296.499 508.73 297.051 508.308 297.051 508.308C340.985 524.442 309.577 586.796 309.577 586.796Z" fill="black"/>
<path opacity="0.1" d="M412.397 509.283C410.606 535.562 406.691 561.653 400.689 587.3C400.012 587.097 399.323 586.935 398.625 586.818C398.625 586.818 367.202 524.464 411.151 508.329C411.135 508.307 411.579 508.638 412.397 509.283Z" fill="black"/>
<path d="M396.312 598.618C393.278 610.588 389.722 622.868 385.644 635.459C385.644 635.459 366.291 655.619 319.546 635.459C319.546 635.459 314.876 622.294 309.74 599.913C298.433 550.702 284.872 456.925 313.765 360.601C322.369 331.644 334.599 303.89 350.162 278C350.162 278 374.846 306.341 392.964 360.584C411.081 414.828 422.61 494.985 396.312 598.618Z" fill="#E3E8F4"/>
<path d="M354.09 475.876C375.523 475.876 392.898 458.501 392.898 437.068C392.898 415.635 375.523 398.26 354.09 398.26C332.657 398.26 315.282 415.635 315.282 437.068C315.282 458.501 332.657 475.876 354.09 475.876Z" fill="#AFC0E0"/>
<path d="M381.613 437.09C381.613 442.302 380.133 447.407 377.345 451.81C374.558 456.214 370.577 459.736 365.866 461.966C361.156 464.196 355.909 465.042 350.735 464.407C345.562 463.772 340.676 461.68 336.645 458.377C334.677 456.756 332.942 454.873 331.487 452.78C330.834 451.845 330.24 450.87 329.71 449.86C327.646 445.92 326.57 441.538 326.573 437.09C326.573 436.868 326.573 436.651 326.573 436.434C326.714 430.549 328.737 424.863 332.344 420.211C335.952 415.558 340.954 412.183 346.619 410.58C348.782 409.984 351.008 409.646 353.251 409.573H354.074C357.69 409.571 361.27 410.281 364.611 411.663C367.951 413.044 370.987 415.071 373.544 417.626C376.102 420.182 378.131 423.216 379.515 426.555C380.9 429.895 381.613 433.475 381.613 437.09Z" fill="#00B0FF"/>
<path d="M392.958 360.584C348.927 381.665 313.738 360.584 313.738 360.584C322.352 331.632 334.59 303.884 350.162 278C350.162 278 374.846 306.341 392.958 360.584Z" fill="#2F2E41"/>
<path d="M396.312 598.618C394.253 606.723 391.959 614.967 389.431 623.351C388.232 627.349 386.968 631.38 385.638 635.443C385.638 635.443 366.286 655.603 319.541 635.443C319.541 635.443 318.024 631.169 315.748 623.351C314.047 617.445 311.929 609.53 309.718 599.897C309.718 599.897 327.12 607.325 351.82 607.325C367.079 607.377 382.198 604.418 396.312 598.618Z" fill="#AFC0E0"/>
<path d="M389.431 623.351C388.232 627.349 386.968 631.38 385.639 635.443C385.639 635.443 366.286 655.603 319.541 635.443C319.541 635.443 318.024 631.169 315.748 623.351C315.743 623.351 363.388 637.058 389.431 623.351Z" fill="#E3E8F4"/>
<path opacity="0.2" d="M346.635 410.542L346.576 410.586L326.584 436.396C326.584 436.613 326.584 436.83 326.584 437.052C326.58 441.5 327.657 445.882 329.721 449.822L353.278 409.535L346.635 410.542Z" fill="white"/>
<path opacity="0.2" d="M353.018 433.839L336.645 458.355C334.677 456.735 332.942 454.851 331.487 452.758L350.991 431.824L353.018 433.839Z" fill="white"/>
<path opacity="0.2" d="M330.003 635.448C330.003 635.448 325.332 622.277 320.196 599.902C308.889 550.686 295.328 456.908 324.222 360.584C331.989 334.521 342.685 309.422 356.106 285.769C352.438 280.627 350.146 278.005 350.146 278.005C334.58 303.888 322.347 331.634 313.738 360.584C284.845 456.908 298.406 550.686 309.713 599.902C314.849 622.277 319.519 635.448 319.519 635.448C337.989 643.407 352.178 645.076 362.591 644.187C353.695 643.51 342.892 641.002 330.003 635.448Z" fill="white"/>
</g>
</g>
<defs>
<linearGradient id="paint0_linear" x1="449" y1="144.192" x2="527.751" y2="144.192" gradientUnits="userSpaceOnUse">
<stop stop-color="white"/>
<stop offset="1" stop-color="white" stop-opacity="0.3"/>
</linearGradient>
<linearGradient id="paint1_linear" x1="45914.1" y1="22556" x2="52750.4" y2="22556" gradientUnits="userSpaceOnUse">
<stop stop-color="white"/>
<stop offset="1" stop-color="white" stop-opacity="0.3"/>
</linearGradient>
<clipPath id="clip0">
<rect width="684" height="682" fill="white"/>
</clipPath>
</defs>
</svg>
