<svg width="355" height="355" viewBox="0 0 355 355" fill="none" xmlns="http://www.w3.org/2000/svg">
<mask id="mask0" mask-type="alpha" maskUnits="userSpaceOnUse" x="0" y="0" width="355" height="355">
<rect width="355" height="355" fill="#C4C4C4"/>
</mask>
<g mask="url(#mask0)">
<path d="M48.4921 257.902C62.3806 242.78 86.5494 243.382 101.069 257.902C115.589 272.422 115.585 295.959 101.067 310.477C101.067 310.477 88.7567 323.296 79.8563 325.706C79.8563 325.706 84.8631 318.844 82.7307 312.259C80.5984 305.675 81.1549 302.708 81.1549 302.708C81.1549 302.708 72.5296 329.693 35.623 325.058C35.623 325.058 45.9158 318.846 44.8027 311.242C43.6897 303.638 47.6771 296.499 52.1274 292.974C52.1274 292.974 44.6151 291.769 38.3119 300.299C38.3119 300.299 35.9919 290.563 55.0956 272.018C55.0956 272.018 47.8647 265.712 38.7767 279.436C38.7767 279.436 37.5261 269.839 48.4921 257.902Z" fill="#E14B4B"/>
<path d="M100.675 285.889C100.675 285.889 114.397 269.979 99.9188 256.51C99.9188 256.51 87.9647 244.893 74.4952 256.845C74.4952 256.845 86.5077 258.381 78.0908 266.669C76.5942 268.145 74.7308 269.179 72.7381 269.85C70.4515 270.623 66.8204 272.449 63.7167 276.712C63.7167 276.712 72.6213 271.134 72.9778 278.565C73.1904 283.009 72.2545 285.767 62.8746 293.212C62.8746 293.212 68.1565 293.583 74.5953 288.662C75.8147 287.73 77.5135 287.545 78.8079 288.368C80.0815 289.179 80.9298 290.898 79.231 294.531C79.231 294.531 84.6046 293.535 88.9777 282.429C88.9777 282.429 91.75 277.806 96.2961 279.322C100.842 280.837 100.675 285.889 100.675 285.889Z" fill="#FFD83B"/>
<path d="M99.8023 195.065C98.6444 194.256 97.407 193.568 96.1092 193.011C67.1928 180.599 13.5204 234.961 13.5204 234.961L7.43677 228.877C7.43677 228.877 28.7027 203.78 53.428 162.36C75.6631 125.084 133.174 129.26 144.495 130.467C145.763 130.608 146.452 130.7 146.452 130.7C166.102 173.182 99.8023 195.065 99.8023 195.065Z" fill="#2F2E41"/>
<path opacity="0.2" d="M147.774 133.899C147.387 132.853 146.962 131.8 146.464 130.727C146.464 130.727 145.782 130.643 144.506 130.493C133.186 129.287 75.6748 125.111 53.4397 162.386C28.7144 203.807 7.43702 228.877 7.43702 228.877L10.8581 232.298C10.8581 232.298 32.1432 207.221 56.8493 165.781C78.9772 128.674 136.09 132.65 147.774 133.899Z" fill="white"/>
<path d="M195.455 304.402C154.015 329.108 128.956 350.397 128.956 350.397L122.861 344.302C122.861 344.302 179.698 288.231 163.883 259.813C163.548 259.19 163.175 258.589 162.765 258.012C162.765 258.012 184.636 191.702 227.122 211.37C227.122 211.37 227.202 211.918 227.313 212.941C228.463 223.307 233.16 281.906 195.455 304.402Z" fill="#2F2E41"/>
<path opacity="0.1" d="M99.8023 195.065C98.6445 194.256 97.407 193.568 96.1092 193.012C110.657 170.992 126.828 150.088 144.487 130.474C145.755 130.616 146.445 130.708 146.445 130.708C166.102 173.182 99.8023 195.065 99.8023 195.065Z" fill="black"/>
<path opacity="0.1" d="M227.318 212.96C207.469 230.275 186.251 245.955 163.872 259.847C163.537 259.225 163.163 258.623 162.754 258.047C162.754 258.047 184.625 191.736 227.111 211.404C227.114 211.377 227.195 211.925 227.318 212.96Z" fill="black"/>
<path d="M152.774 264.755C142.164 271.074 130.966 277.243 119.18 283.263C119.18 283.263 91.24 283.833 72.4413 236.524C72.4413 236.524 78.4483 223.913 90.6424 204.455C117.444 161.663 174.166 85.7628 262.708 38.0821C289.268 23.6905 317.54 12.7133 346.852 5.41134C346.852 5.41134 344.266 42.9054 318.721 94.0722C293.176 145.239 244.649 210.071 152.774 264.755Z" fill="#E3E8F4"/>
<path d="M209.71 148.109C224.865 163.264 249.437 163.264 264.593 148.109C279.748 132.953 279.748 108.381 264.593 93.2257C249.437 78.0701 224.865 78.0701 209.71 93.2257C194.554 108.381 194.554 132.953 209.71 148.109Z" fill="#AFC0E0"/>
<path d="M256.597 140.144C252.912 143.829 248.256 146.392 243.171 147.535C238.086 148.678 232.781 148.353 227.873 146.599C222.965 144.845 218.656 141.733 215.448 137.626C212.239 133.519 210.263 128.585 209.748 123.399C209.503 120.862 209.607 118.303 210.058 115.794C210.258 114.671 210.528 113.562 210.867 112.473C212.193 108.227 214.531 104.367 217.678 101.225C217.835 101.068 217.989 100.914 218.142 100.761C222.403 96.6993 227.854 94.109 233.695 93.3699C239.535 92.6309 245.459 93.7819 250.598 96.6544C252.549 97.7624 254.362 99.0971 256 100.631L256.582 101.213C259.14 103.768 261.17 106.802 262.555 110.141C263.94 113.481 264.653 117.06 264.655 120.675C264.656 124.291 263.945 127.871 262.563 131.211C261.18 134.552 259.153 137.587 256.597 140.144Z" fill="#00B0FF"/>
<path d="M318.717 94.0682C272.676 77.84 262.7 38.0512 262.7 38.0512C289.264 23.6696 317.539 12.7027 346.852 5.41111C346.852 5.41111 344.266 42.9051 318.717 94.0682Z" fill="#2F2E41"/>
<path d="M152.773 264.755C145.586 269.03 138.135 273.238 130.42 277.378C126.744 279.357 123 281.314 119.187 283.247C119.187 283.247 91.2475 283.818 72.4488 236.509C72.4488 236.509 74.3987 232.413 78.3179 225.276C81.2907 219.898 85.3899 212.803 90.6384 204.428C90.6384 204.428 97.6912 221.986 115.157 239.451C125.909 250.278 138.692 258.876 152.773 264.755Z" fill="#AFC0E0"/>
<path d="M130.42 277.378C126.744 279.357 123 281.314 119.187 283.247C119.187 283.247 91.2475 283.818 72.4488 236.509C72.4488 236.509 74.3988 232.414 78.3179 225.276C78.314 225.273 102.311 268.655 130.42 277.378Z" fill="#E3E8F4"/>
<path opacity="0.2" d="M250.637 96.6387L250.564 96.6272L218.177 100.742C218.023 100.895 217.87 101.048 217.713 101.205C214.565 104.348 212.228 108.208 210.901 112.453L256.046 100.623L250.637 96.6387Z" fill="white"/>
<path opacity="0.2" d="M238.676 117.625L209.764 123.383C209.518 120.846 209.623 118.287 210.074 115.779L238.669 114.767L238.676 117.625Z" fill="white"/>
<path opacity="0.2" d="M79.8429 243.91C79.8429 243.91 85.8537 231.295 98.0439 211.841C124.849 169.045 181.571 93.1449 270.113 45.4642C294.035 32.5267 319.346 22.3427 345.561 15.1073C346.603 8.8781 346.837 5.40338 346.837 5.40338C317.528 12.6982 289.259 23.6677 262.7 38.0512C174.158 85.7319 117.436 161.632 90.6309 204.428C78.4407 223.882 72.4299 236.497 72.4299 236.497C79.862 255.185 88.7155 266.398 96.7069 273.133C90.8953 266.364 85.03 256.951 79.8429 243.91Z" fill="white"/>
</g>
</svg>
